HIERARCHY
ROOT Hips
{
	OFFSET 0.00000 0.00000 0.00000
	CHANNELS 6 Xposition Yposition Zposition Yrotation Zrotation Xrotation 
	JOINT Lumbar
	{
		OFFSET 0 0 0
		CHANNELS 3 Zrotation Xrotation Yrotation
		JOINT Neck
		{
			OFFSET 0.00 0.2701 0.00
			CHANNELS 3 Zrotation Xrotation Yrotation
			End Site
			{
				OFFSET 0.00 0.1379 0.00
			}
		}
		JOINT RightShoulder
		{
			OFFSET 0.0119 0.2289 0.1181
			CHANNELS 3 Zrotation Xrotation Yrotation
			JOINT RightElbow
			{
				OFFSET 0.00 -0.1475 0.00
				CHANNELS 2 Zrotation Yrotation
				JOINT RightWrist
				{
					OFFSET 0.00 -0.1605 0.00
					CHANNELS 2 Zrotation Xrotation
					End Site
					{
						OFFSET 0.0040 -0.1068 0.0006
					}
				}
			}
		}
		JOINT LeftShoulder
		{
			OFFSET 0.0119 0.2289 -0.1181
			CHANNELS 3 Zrotation Xrotation Yrotation
			JOINT LeftElbow
			{
				OFFSET 0.00 -0.1475 0.00
				CHANNELS 2 Zrotation Yrotation
				JOINT LeftWrist
				{
					OFFSET 0.00 -0.1605 0.00
					CHANNELS 2 Zrotation Xrotation
					End Site
					{
						OFFSET 0.0040 -0.1068 -0.0006
					}
				}
			}
		}
	}
	JOINT RightHip
	{
		OFFSET 0.0316 -0.0424 0.0458
		CHANNELS 3 Zrotation Xrotation Yrotation
		JOINT RightKnee
		{
			OFFSET 0.00 -0.2438 0.00
			CHANNELS 1 Zrotation
			JOINT RightAnkle
			{
				OFFSET 0.00 -0.2449 0.00
				CHANNELS 3 Zrotation Xrotation Yrotation
				End Site
				{
					OFFSET 0.1237 -0.0542 0.0051
				}
			}
		}
	}
	JOINT LeftHip
	{
		OFFSET 0.0316 -0.0424 -0.0458
		CHANNELS 3 Zrotation Xrotation Yrotation
		JOINT LeftKnee
		{
			OFFSET 0.00 -0.2438 0.00
			CHANNELS 1 Zrotation
			JOINT LeftAnkle
			{
				OFFSET 0.00 -0.2449 0.00
				CHANNELS 3 Zrotation Xrotation Yrotation
				End Site
				{
					OFFSET 0.1237 -0.0542 -0.0051
				}
			}
		}
	}
}
MOTION
Frames: 25
Frame Time: 0.02
0.41064 0.06932 -0.25541 -8.28575 -71.46598 -25.2261 -2.76699 3.0623 2.29925 20.37453 -20.65613 -0.82984 91.09468 4.37869 35.26182 10.40365 81.89816 -3.96827 0.20383 81.05998 -0.20405 -35.69204 18.71454 -81.60335 -0.87368 4.10382 95.88873 -11.59325 0.62328 -33.77372 -6.71061 -3.20121 -2.30112 114.07902 6.26841 11.384 -49.97429 -7.01526 1.64884 1.48342
0.41065 0.0694 -0.25459 -7.5752 -70.65188 -24.52456 -2.33193 2.82847 2.34665 20.39422 -20.46869 -0.82987 89.46262 3.67285 36.04068 11.74193 82.33215 -3.68412 0.01312 79.44595 0.06037 -35.8776 19.67463 -81.59351 -0.64655 4.28885 94.88548 -11.49867 0.20547 -33.58588 -6.70941 -3.15353 -2.27519 113.15042 6.20364 10.76928 -49.84846 -6.99697 1.70747 1.51393
0.41071 0.06944 -0.2538 -6.93305 -69.78724 -23.87252 -1.91651 2.59364 2.42095 20.36911 -20.28521 -0.82989 87.79921 2.9073 37.04862 13.24937 82.76949 -3.40942 -0.20319 77.8379 0.36273 -36.12566 20.66727 -81.53535 -0.46999 4.45669 93.82004 -11.4194 -0.2766 -33.3894 -6.70525 -3.09366 -2.24348 112.18455 6.09031 10.02151 -49.75648 -6.97113 1.78577 1.55443
0.41076 0.0695 -0.25301 -6.26092 -68.94277 -23.20106 -1.48922 2.36209 2.48139 20.36221 -20.09707 -0.82991 86.14338 2.16594 37.93006 14.69202 83.19011 -3.12202 -0.40525 76.22597 0.65473 -36.34971 21.6487 -81.49944 -0.25923 4.6361 92.77637 -11.33131 -0.72481 -33.19391 -6.70266 -3.04005 -2.21473 111.22914 5.9958 9.32756 -49.64703 -6.94887 1.85592 1.5909
0.41075 0.06953 -0.25219 -5.58088 -68.10868 -22.51279 -1.0755 2.11829 2.54975 20.36395 -19.91999 -0.82994 84.51434 1.4347 38.89468 16.09028 83.66484 -2.8676 -0.61737 74.61734 0.91741 -36.55764 22.61551 -81.45917 -0.09075 4.80117 91.76 -11.2544 -1.20011 -33.01345 -6.6989 -2.98239 -2.18396 110.29952 5.91418 8.66125 -49.54736 -6.92591 1.92291 1.62536
0.41087 0.06962 -0.25143 -4.93521 -67.24149 -21.87315 -0.63701 1.89971 2.60766 20.33742 -19.72069 -0.82996 82.82218 0.66868 39.74583 17.61861 84.03163 -2.54928 -0.81392 73.00483 1.25046 -36.81548 23.62034 -81.41765 0.15025 4.99083 90.67153 -11.15658 -1.63121 -32.79799 -6.69702 -2.93072 -2.15631 109.30733 5.79565 7.90863 -49.43461 -6.90264 2.00081 1.66617
0.41133 0.06988 -0.25086 -4.36272 -66.29537 -21.35113 -0.1346 1.75336 2.62942 20.24092 -19.46542 -0.82999 80.96835 -0.17342 40.215 19.46458 84.09821 -2.03239 -0.97445 71.36863 1.76651 -37.16584 24.7222 -81.38495 0.62373 5.26007 89.4052 -10.99671 -1.92565 -32.49564 -6.70051 -2.89813 -2.13835 108.1584 5.57301 6.91726 -49.28162 -6.88044 2.10741 1.7242
0.41192 0.07021 -0.25036 -3.82377 -65.3178 -20.87779 0.39512 1.63214 2.63967 20.11788 -19.18662 -0.83001 79.0516 -1.04888 40.56583 21.43432 84.05768 -1.45458 -1.11637 69.73069 2.35266 -37.56907 25.86136 -81.35292 1.16791 5.55309 88.06726 -10.81471 -2.17134 -32.15659 -6.70617 -2.8723 -2.12394 106.9466 5.3176 5.84971 -49.11326 -6.85822 2.22364 1.78788
0.41246 0.07051 -0.24983 -3.27315 -64.35483 -20.38553 0.9185 1.49785 2.65558 20.00914 -18.91475 -0.83003 77.16037 -1.91238 40.98058 23.34705 84.06854 -0.91786 -1.25831 68.10094 2.90783 -37.9671 26.98301 -81.32087 1.66612 5.8303 86.75847 -10.64296 -2.43864 -31.82916 -6.71118 -2.84371 -2.10817 105.75962 5.0862 4.83784 -48.94932 -6.83599 2.33334 1.84764
0.41295 0.07079 -0.24927 -2.70982 -63.38905 -19.88098 1.41575 1.37015 2.67085 19.89019 -18.65918 -0.83006 75.28016 -2.76518 41.36046 25.2706 84.06806 -0.32519 -1.43629 66.43951 3.45982 -38.2882 28.10713 -81.28628 2.22058 6.12831 85.46255 -10.47173 -2.71401 -31.52314 -6.71452 -2.813 -2.09092 104.58797 4.81411 3.73113 -48.79804 -6.81354 2.45305 1.91358
0.41359 0.07113 -0.24879 -2.17998 -62.42196 -19.41348 1.97392 1.23511 2.68409 19.78577 -18.36368 -0.83008 73.3635 -3.64655 41.78175 27.19678 84.06552 0.16593 -1.53499 64.84437 4.03556 -38.78089 29.23583 -81.25728 2.67588 6.38855 84.12275 -10.29303 -2.95587 -31.16352 -6.72206 -2.78892 -2.07792 103.3689 4.62027 2.8073 -48.61549 -6.79167 2.55363 1.96772
0.41459 0.07166 -0.24851 -1.7347 -61.46197 -19.032 2.6953 1.07043 2.69686 19.73688 -17.96683 -0.83009 71.35312 -4.60537 42.34623 29.11617 84.0858 0.35823 -1.41526 63.42646 4.65124 -39.73657 30.35665 -81.24812 2.83501 6.54126 82.6868 -10.10687 -3.1536 -30.66845 -6.73917 -2.77764 -2.07371 102.04331 4.64532 2.39303 -48.3571 -6.77099 2.6016 1.98901
0.41574 0.07225 -0.2483 -1.32152 -60.50123 -18.68675 3.47639 0.89817 2.70742 19.70211 -17.53013 -0.8301 69.31002 -5.59007 42.95482 31.03011 84.10726 0.44686 -1.21738 62.07672 5.28972 -40.86193 31.48267 -81.24389 2.89298 6.65477 81.20795 -9.91248 -3.3126 -30.12032 -6.76074 -2.77353 -2.07405 100.67045 4.75149 2.16865 -48.06633 -6.75098 2.62941 1.99797
0.41684 0.07282 -0.24806 -0.89314 -59.53938 -18.32742 4.22968 0.73141 2.71734 19.6552 -17.10944 -0.83011 67.28758 -6.55839 43.54285 32.93495 84.12677 0.58538 -1.05736 60.6995 5.92324 -41.90848 32.61369 -81.23472 3.00091 6.78455 79.7443 -9.7166 -3.4645 -29.59382 -6.78127 -2.76878 -2.07371 99.31382 4.82418 1.86733 -47.78579 -6.73097 2.66468 2.0118
0.41789 0.07336 -0.2478 -0.4687 -58.58341 -17.95946 4.98846 0.55658 2.73382 19.63135 -16.6963 -0.83012 65.23829 -7.54806 44.13127 34.89283 84.14868 0.71454 -0.88531 59.30637 6.53676 -42.96594 33.71522 -81.2372 3.0948 6.92153 78.29676 -9.54175 -3.71716 -29.07544 -6.79767 -2.75337 -2.0677 97.97815 4.88136 1.52406 -47.52369 -6.70968 2.70748 2.02893
0.41906 0.07398 -0.2476 -0.04305 -57.61433 -17.61783 5.74743 0.39678 2.73627 19.56335 -16.25889 -0.83013 63.23821 -8.49816 44.72808 36.73766 84.16704 0.83746 -0.72187 57.96395 7.19602 -44.03795 34.87856 -81.21624 3.19254 7.03409 76.8058 -9.32178 -3.75369 -28.52942 -6.82373 -2.76157 -2.07443 96.58714 4.99058 1.31387 -47.21568 -6.69117 2.7297 2.03619
0.4205 0.07481 -0.2475 0.3921 -56.61956 -17.33636 6.51135 0.27699 2.70016 19.36874 -15.75908 -0.83014 61.38058 -9.33883 45.36039 38.26778 84.17772 0.97117 -0.58506 56.73382 7.97899 -45.12781 36.21418 -81.13083 3.32944 7.08679 75.21263 -8.9768 -3.18417 -27.90951 -6.87522 -2.83494 -2.11616 95.06704 5.22327 1.42864 -46.78919 -6.68061 2.6999 2.01915
0.42205 0.07571 -0.24745 0.8299 -55.6103 -17.08055 7.26993 0.173 2.65006 19.12955 -15.23739 -0.83015 59.57428 -10.13729 45.99511 39.6846 84.18485 1.10141 -0.46255 55.55473 8.80621 -46.22236 37.61101 -81.02028 3.47282 7.11628 73.57726 -8.58759 -2.40299 -27.26661 -6.93623 -2.93137 -2.1703 93.49162 5.50554 1.67019 -46.31781 -6.67274 2.65012 1.99261
0.42355 0.07657 -0.24737 1.26793 -54.60052 -16.81518 8.01803 0.06398 2.60669 18.91178 -14.72903 -0.83016 57.74562 -10.95101 46.61508 41.15495 84.19262 1.23119 -0.3445 54.35915 9.61096 -47.3022 38.97786 -80.9217 3.6102 7.15788 71.95556 -8.21985 -1.73022 -26.64033 -6.99306 -3.01622 -2.21823 91.93304 5.76587 1.85182 -45.86656 -6.66335 2.60944 1.97039
0.42506 0.07745 -0.24731 1.69936 -53.61888 -16.5423 8.82182 -0.05399 2.56184 18.68972 -14.2045 -0.83017 55.91133 -11.78283 47.29725 42.61578 84.20458 1.36593 -0.17825 53.13644 10.42688 -48.44207 40.35443 -80.82557 3.75632 7.19249 70.35143 -7.84457 -1.00126 -25.98277 -7.04972 -3.1064 -2.26899 90.40502 6.02754 2.05074 -45.41451 -6.65525 2.56776 1.94761
0.42657 0.07831 -0.24723 2.14486 -52.57747 -16.29061 9.50872 -0.14996 2.51655 18.46564 -13.70956 -0.83018 54.10183 -12.56583 47.84601 44.07055 84.2068 1.49094 -0.11582 51.98296 11.22931 -49.45457 41.72475 -80.71255 3.88794 7.23548 68.70644 -7.47646 -0.34361 -25.38979 -7.10856 -3.1903 -2.31643 88.80431 6.29582 2.24004 -44.95493 -6.64507 2.52398 1.92407
0.4281 0.07911 -0.24707 2.63502 -51.35516 -16.09166 9.86376 -0.18476 2.4753 18.24829 -13.29706 -0.83018 52.34624 -13.22996 48.06 45.52646 84.18488 1.5886 -0.34479 50.99528 11.98704 -50.12351 43.0664 -80.61099 3.97044 7.31747 66.91489 -7.12294 0.10034 -24.94503 -7.17426 -3.25589 -2.3545 86.98707 6.58162 2.38276 -44.47664 -6.62873 2.47652 1.8993
0.42961 0.07988 -0.24689 3.13814 -50.07684 -15.91294 10.10292 -0.19869 2.43372 18.02988 -12.91616 -0.83018 50.61527 -13.8449 48.13389 46.98111 84.15314 1.67673 -0.67616 50.07757 12.72888 -50.66131 44.3987 -80.48552 4.03964 7.40705 65.09214 -6.78107 0.45897 -24.57289 -7.24123 -3.31347 -2.38828 85.10436 6.87013 2.50908 -43.99413 -6.61017 2.42816 1.87437
0.43112 0.08064 -0.24671 3.6314 -48.83684 -15.72437 10.4018 -0.22497 2.39115 17.81126 -12.52404 -0.83019 48.87337 -14.47896 48.24817 48.44396 84.1244 1.77136 -0.95622 49.13596 13.47573 -51.25244 45.73321 -80.33445 4.12085 7.48656 63.31275 -6.44462 0.83292 -24.19133 -7.30549 -3.37155 -2.42211 83.27102 7.1491 2.6339 -43.51956 -6.59243 2.38225 1.85057
0.43269 0.08147 -0.24655 4.14187 -47.54191 -15.53921 10.67111 -0.23871 2.35304 17.595 -12.1179 -0.83019 47.12844 -15.12657 48.45736 49.87437 84.10086 1.85911 -1.25874 48.16288 14.23368 -51.87113 47.07944 -80.3285 4.17865 7.59288 61.40855 -6.06197 1.31134 -23.7098 -7.379 -3.44354 -2.46433 81.35264 7.46364 2.79834 -43.01804 -6.5755 2.3274 1.82215
